<svg width="87" height="95" viewBox="0 0 87 95" fill="none" xmlns="http://www.w3.org/2000/svg">
<circle cx="43.5" cy="51.5" r="43.5" fill="#EBF9F3"/>
<path d="M16.8164 0.481262C16.1697 0.827171 15.7185 1.18811 15.3726 1.66937C14.5003 2.90261 14.4251 3.48914 14.4251 9.62523V15.1146L13.0565 16.5434C7.9281 21.8824 4.67959 28.1839 3.44635 35.1923C3.28092 36.1397 3.07037 38.0497 2.96509 39.4183L2.79966 41.9149L2.27328 42.1104C1.98753 42.2157 1.46115 42.5616 1.1002 42.8924C-0.0728705 43.9753 -0.0277522 43.4489 0.017366 54.9841L0.0624843 65.226L0.513667 65.9629C0.799416 66.4141 1.2506 66.8653 1.70178 67.151L2.43871 67.6022L8.39432 67.6473L14.3499 67.6924L15.7035 68.8204C20.847 73.1367 27.1786 75.8739 34.0215 76.7763C36.3676 77.077 40.7742 77.077 43.1805 76.7612C49.6174 75.934 55.8437 73.227 61.0774 68.9858L62.7017 67.6774H68.4467C74.1768 67.6774 74.2068 67.6774 74.9588 67.3165C75.7709 66.9405 76.4627 66.2487 76.7936 65.4666C76.944 65.0756 76.9891 62.9851 76.9891 54.7435C76.9891 44.8325 76.9741 44.4866 76.6883 43.9452C76.5229 43.6444 76.3124 43.2835 76.2071 43.1631C75.8612 42.7571 74.9738 42.1405 74.5678 42.0352C74.1768 41.945 74.1768 41.9299 74.0715 39.9597C73.6203 30.9361 70.2063 23.0855 63.8748 16.4682L62.5663 15.0996L62.5212 9.15901L62.4761 3.21844L62.0249 2.33111C61.5136 1.33851 60.5059 0.45118 59.5434 0.165436C59.1373 0.0451202 53.2569 0 38.3679 0H17.7639L16.8164 0.481262ZM59.0471 2.79733C59.2727 2.96277 59.5885 3.33875 59.7389 3.63954C59.9795 4.1208 59.9946 4.75246 59.9645 11.6104L59.9194 19.07L51.7981 13.4904C44.9251 8.76798 43.6016 7.91074 43.1504 7.91074C42.6992 7.91074 40.6689 9.20413 29.8405 16.4381L17.057 24.9654L17.0119 14.9341C16.9818 9.39964 17.0119 4.60207 17.057 4.24112C17.1773 3.42899 17.7789 2.72214 18.4858 2.5567C18.7715 2.49654 27.9305 2.45142 38.8191 2.45142C58.5658 2.48151 58.626 2.48151 59.0471 2.79733ZM51.7229 16.5885L59.9194 22.2132L59.9645 24.9805C59.9946 27.4319 59.9645 27.8079 59.7239 28.2591C59.408 28.8456 58.626 29.3269 57.9943 29.3269C57.4078 29.3269 56.8363 29.9285 56.8363 30.5751C56.8363 31.4926 57.6484 32.0189 58.7613 31.8084C60.3104 31.5226 61.4985 30.6203 62.1302 29.2517C62.461 28.5298 62.4761 28.3042 62.5513 23.7021L62.6265 18.8895L63.4687 19.8671C68.3565 25.5069 71.0937 32.3498 71.5148 39.9597L71.6201 41.8096H65.0629C60.5811 41.8096 58.3854 41.8698 58.1447 41.975C57.7687 42.1405 57.4379 42.6819 57.4379 43.0879C57.4379 43.494 57.7687 44.0354 58.1447 44.2009C58.3854 44.3212 60.8518 44.3663 66.0855 44.3663H73.6654L74.0865 44.7272L74.5076 45.0882V54.7134V64.3387L74.1467 64.7297L73.7857 65.1207H61.2429H48.7L48.339 64.7447L47.963 64.3838V58.759C47.963 53.2847 47.948 53.1192 47.6472 52.7282C47.4066 52.4124 47.2111 52.3372 46.6847 52.3372C46.1583 52.3372 45.9628 52.4124 45.7222 52.7282C45.4214 53.1192 45.4063 53.2847 45.4063 58.9395C45.4063 64.459 45.4214 64.7748 45.7222 65.4215C45.8876 65.7975 46.2486 66.3239 46.5042 66.5946C47.4818 67.6172 47.3464 67.5872 53.2268 67.6774L58.5658 67.7526L56.8363 68.8956C51.1664 72.6705 45.286 74.4602 38.5032 74.4602C31.6603 74.4602 25.6596 72.6103 19.9145 68.7602L18.4256 67.7526L23.7496 67.6774C29.6149 67.6022 29.5097 67.6172 30.5023 66.6096C31.525 65.602 31.4949 65.8125 31.54 59.12L31.5851 53.044L31.2542 52.6981C30.8331 52.247 29.9458 52.2169 29.4495 52.6229L29.0886 52.9087L29.0134 58.7289L28.9382 64.5492L28.5772 64.835C28.2464 65.1057 27.8102 65.1207 15.7336 65.1207H3.2358L2.8899 64.7898L2.54399 64.474V54.7886V45.1032L2.91997 44.7423L3.28092 44.3663H11.0413H18.8016L19.1926 43.9753C19.5085 43.6444 19.5686 43.494 19.4934 42.9827C19.343 41.8246 19.734 41.8848 12.1542 41.8397L5.3714 41.7946L5.47668 40.1101C5.77746 35.1622 6.78511 31.2068 8.84551 26.9958C10.0637 24.5293 11.4924 22.2884 13.1618 20.3032L14.3499 18.8745L14.4251 23.6871C14.5154 29.0261 14.5304 29.1915 15.6132 30.4248C16.7111 31.673 19.1926 32.2746 19.8544 31.4474C20.5011 30.6503 19.9446 29.3269 18.967 29.3269C18.4858 29.3269 17.6586 28.8155 17.3277 28.3343C17.1322 28.0335 17.6586 27.6725 30.0962 19.3708C39.3605 13.1896 43.1354 10.7532 43.3008 10.8434C43.4211 10.9036 47.2111 13.4904 51.7229 16.5885Z" fill="#80D3A4"/>
<path d="M23.5988 4.94775C22.7717 5.20342 21.9445 5.74484 21.373 6.40658C19.2675 8.7828 19.9894 12.5577 22.8018 13.9263C25.178 15.0994 28.0806 14.1368 29.2837 11.8057C29.8101 10.768 29.9154 9.06855 29.5244 7.9406C29.1183 6.78256 27.7046 5.36886 26.6067 5.05303C25.7645 4.79736 24.2455 4.75224 23.5988 4.94775ZM26.1255 7.66989C27.5843 8.55721 27.5542 10.6928 26.0653 11.535C25.3284 11.9561 24.6215 11.9712 23.8996 11.5651C22.7416 10.9034 22.3656 9.36934 23.1176 8.30154C23.7643 7.39918 25.178 7.09839 26.1255 7.66989Z" fill="#80D3A4"/>
<path d="M35.3446 22.0625C35.089 22.273 34.9536 22.7242 34.6829 24.2582L34.352 26.1833L33.1789 26.6946C32.5323 26.9653 31.5246 27.5368 30.9531 27.973L29.9004 28.74L28.246 28.1234C26.5315 27.5068 26.0352 27.4165 25.554 27.6722C25.1329 27.8978 22.6965 32.2442 22.6965 32.7555C22.6965 33.327 23.0123 33.703 24.4561 34.8761L25.6292 35.8536V38.5006V41.1475L24.4561 42.1251C23.0123 43.2982 22.6965 43.6741 22.6965 44.2456C22.6965 44.757 25.1329 49.1034 25.554 49.329C26.0352 49.5846 26.5315 49.4944 28.246 48.8778L29.9004 48.2612L30.8478 48.968C31.8404 49.6899 32.9233 50.2915 33.8106 50.6073L34.337 50.7878L34.6829 52.7279C34.9536 54.2769 35.089 54.7281 35.3446 54.9387C35.6304 55.1643 36.0214 55.1943 38.5631 55.1943C41.2551 55.1943 41.4657 55.1793 41.7213 54.8935C41.9469 54.6379 42.1876 53.6453 42.6989 50.7126C42.6989 50.6975 42.7891 50.6825 42.9095 50.6825C43.2704 50.6825 45.4511 49.5094 46.2783 48.8778L47.0754 48.2612L48.7297 48.8778C50.5645 49.5395 51.0909 49.5997 51.5421 49.2086C51.7226 49.0733 52.3993 48.0055 53.0611 46.8475C54.7154 43.9749 54.7154 44.005 52.8204 42.3657L51.3466 41.0874L51.3616 38.4855L51.3766 35.8837L52.8355 34.6204C54.7004 33.0112 54.7004 33.0413 53.1212 30.2439C52.4745 29.116 51.7978 28.0482 51.6173 27.8527C51.1511 27.3864 50.6247 27.4316 48.7448 28.1384L47.0904 28.755L46.2933 28.1234C45.4511 27.4917 43.2704 26.3186 42.9095 26.3186C42.7891 26.3186 42.6989 26.3036 42.6989 26.2735C42.1124 22.9047 41.962 22.3332 41.6461 22.0775C41.3454 21.8369 40.9844 21.8068 38.4879 21.8068C36.0214 21.8068 35.6304 21.8369 35.3446 22.0625ZM40.0369 26.0931C40.3678 28.0331 40.5031 28.2136 41.9469 28.725C43.135 29.131 44.3081 29.8228 45.3759 30.7402C46.3836 31.5975 46.6843 31.6125 48.6696 30.9057C49.4817 30.6199 50.1585 30.3793 50.1735 30.3793C50.1885 30.3793 50.4592 30.8455 50.7901 31.417L51.3917 32.4698L50.0532 33.5676C49.2561 34.2143 48.6696 34.8159 48.6094 35.0415C48.5643 35.237 48.5944 35.8687 48.6846 36.4251C48.9102 37.7336 48.9102 39.2676 48.6846 40.576C48.5944 41.1325 48.5643 41.7641 48.6094 41.9596C48.6696 42.1852 49.2711 42.8019 50.0532 43.4485L51.3917 44.5464L50.7901 45.5841C50.4592 46.1556 50.1735 46.6219 50.1434 46.6219C50.1284 46.6219 49.4516 46.3812 48.6545 46.0955C46.6994 45.3886 46.3836 45.4037 45.3759 46.2609C44.3081 47.1783 43.135 47.8701 41.9469 48.2762C40.5182 48.7725 40.3528 48.9981 40.067 50.6825C39.691 53.0287 39.8565 52.788 38.4879 52.788C37.8261 52.788 37.2847 52.773 37.2847 52.7429C37.2847 52.412 36.638 49.2237 36.5327 49.0282C36.4425 48.8778 36.0364 48.6371 35.6003 48.5018C34.337 48.0807 32.6225 47.1332 31.675 46.3211C30.5922 45.4037 30.3215 45.3736 28.3513 46.0955C27.5542 46.3812 26.8624 46.6219 26.8323 46.6219C26.7571 46.6219 25.7044 44.7119 25.7044 44.5615C25.7044 44.5013 26.2909 43.9749 26.9827 43.3884C27.7497 42.7718 28.3062 42.2003 28.3663 41.9747C28.4115 41.7792 28.3814 41.1024 28.2761 40.4707C28.0655 39.027 28.0655 37.9742 28.2761 36.5304C28.3814 35.8988 28.4115 35.222 28.3663 35.0265C28.3062 34.8009 27.7497 34.2294 26.9827 33.6128C26.2909 33.0262 25.7044 32.4998 25.7044 32.4397C25.7044 32.2893 26.7571 30.3793 26.8323 30.3793C26.8624 30.3793 27.5542 30.6199 28.3513 30.9057C30.3215 31.6276 30.5922 31.5975 31.675 30.6801C32.6225 29.8679 34.337 28.9205 35.6003 28.4994C36.0364 28.364 36.4425 28.1384 36.5177 27.988C36.5929 27.8527 36.7734 27.1308 36.9087 26.3788C37.3148 24.1078 37.1193 24.3485 38.5179 24.3936L39.7512 24.4387L40.0369 26.0931Z" fill="#80D3A4"/>
<path d="M36.232 31.4023C35.074 31.7933 34.1416 32.3648 33.2392 33.2672C31.7804 34.726 31.1186 36.3503 31.1186 38.5009C31.1186 40.6515 31.7804 42.2758 33.2392 43.7497C34.8334 45.3288 36.4576 45.9454 38.8489 45.8401C40.6837 45.7499 41.7064 45.404 43.0449 44.3964C46.8499 41.4937 46.8499 35.5081 43.0449 32.6054C41.6462 31.5527 40.6987 31.2369 38.7135 31.1767C37.4202 31.1466 36.8787 31.1917 36.232 31.4023ZM40.5183 34.1244C44.3233 35.9442 44.2481 41.1779 40.3829 42.9526C39.6009 43.2985 39.3753 43.3436 38.2774 43.2834C36.4125 43.1782 35.089 42.351 34.1867 40.7267C33.7957 40.0048 33.7505 39.7943 33.7505 38.5009C33.7505 37.2977 33.8107 36.9669 34.0964 36.4255C34.6379 35.4178 35.4199 34.6358 36.4125 34.1395C37.1946 33.7635 37.5104 33.6883 38.4729 33.6883C39.4204 33.6883 39.7663 33.7635 40.5183 34.1244Z" fill="#80D3A4"/>
<path d="M10.7251 46.9229C9.89796 47.2537 9.913 47.1785 9.913 54.7133C9.913 61.842 9.92804 62.0826 10.4995 62.5188C11.1011 62.985 11.5523 62.7744 17.3575 59.2552C20.5008 57.3452 23.1627 55.6758 23.268 55.5405C23.5688 55.1194 23.4936 54.232 23.1176 53.8861C22.8018 53.6004 12.8306 47.4944 11.838 46.983C11.3869 46.7424 11.1763 46.7274 10.7251 46.9229ZM16.2296 52.6379C17.929 53.6605 19.4029 54.5629 19.4931 54.6531C19.6435 54.7885 18.8314 55.3299 16.2145 56.9241C14.3045 58.0821 12.6803 59.0447 12.6051 59.0747C12.5299 59.1048 12.4697 57.27 12.4697 54.7434V50.3519L12.8156 50.5624C12.9961 50.6827 14.5301 51.6152 16.2296 52.6379Z" fill="#80D3A4"/>
<path d="M59.7988 48.6072C59.1821 49.0584 59.2724 50.4871 59.9191 50.7428C60.0544 50.7879 62.3855 50.833 65.1077 50.833C69.7248 50.833 70.0556 50.818 70.3865 50.5473C70.6572 50.3367 70.7475 50.1111 70.7475 49.6299C70.7475 49.1486 70.6572 48.923 70.3865 48.7124C70.0556 48.4417 69.7248 48.4267 65.0475 48.4267C61.2877 48.4267 59.9943 48.4718 59.7988 48.6072Z" fill="#80D3A4"/>
<path d="M53.1665 53.8558C52.8506 54.0964 52.7755 54.2919 52.7755 54.8183C52.7755 55.3447 52.8506 55.5402 53.1665 55.7809C53.5575 56.0967 53.7079 56.0967 61.6637 56.0967C67.2735 56.0967 69.8753 56.0516 70.1159 55.9312C70.898 55.5703 71.0183 54.6228 70.3866 53.9761L69.9505 53.54H61.754C53.6929 53.54 53.5575 53.54 53.1665 53.8558Z" fill="#80D3A4"/>
<path d="M53.0762 59.1044C52.8807 59.3 52.7755 59.6007 52.7755 60.0068C52.7755 60.4129 52.8807 60.7137 53.0762 60.9092C53.377 61.21 53.5725 61.21 61.769 61.21C70.0858 61.21 70.1761 61.21 70.4618 60.8941C70.8829 60.4279 70.8378 59.4503 70.3866 59.0894C70.0557 58.8187 69.6497 58.8037 61.7089 58.8037C53.5725 58.8037 53.377 58.8037 53.0762 59.1044Z" fill="#80D3A4"/>
</svg>
