<svg width="101" height="101" viewBox="0 0 101 101" fill="none" xmlns="http://www.w3.org/2000/svg">
<circle cx="50.5" cy="50.5" r="50.5" fill="#F9E4DC"/>
<path fill-rule="evenodd" clip-rule="evenodd" d="M50 65.8337C58.7445 65.8337 65.8334 58.7448 65.8334 50.0003C65.8334 41.2558 58.7445 34.167 50 34.167C41.2555 34.167 34.1667 41.2558 34.1667 50.0003C34.1667 58.7448 41.2555 65.8337 50 65.8337Z" stroke="#FF8964"/>
<path fill-rule="evenodd" clip-rule="evenodd" d="M50 64.25C50 64.25 56.3334 59.0682 56.3334 50C56.3334 40.9318 50 35.75 50 35.75C50 35.75 43.6667 40.9318 43.6667 50C43.6667 59.0682 50 64.25 50 64.25Z" stroke="#FF8964"/>
<path d="M34.9584 45.2503H65.0417" stroke="#FF8964" stroke-linecap="round"/>
<path d="M34.9584 54.7503H65.0417" stroke="#FF8964" stroke-linecap="round"/>
</svg>
