<svg width="71" height="71" viewBox="0 0 71 71" fill="none" xmlns="http://www.w3.org/2000/svg">
<rect width="71" height="71" rx="14" fill="#E3FFDF"/>
<path fill-rule="evenodd" clip-rule="evenodd" d="M37.5845 22.9837C37.9419 23.1358 38.1738 23.4867 38.1738 23.875V32.9143H43.25C43.5945 32.9143 43.9131 33.0973 44.0867 33.3948C44.2604 33.6924 44.2629 34.0597 44.0935 34.3597L43.4579 35.4845C41.0475 39.7504 37.9735 43.6055 34.3512 46.9052L33.3237 47.8412C33.0401 48.0995 32.6307 48.1662 32.2798 48.0112C31.9289 47.8561 31.7025 47.5087 31.7025 47.125V38.1623H26.4584C25.9233 38.1623 25.4896 37.7286 25.4896 37.1936C25.4896 37.0203 25.5351 36.8576 25.6148 36.7169C27.8866 32.5171 30.7951 28.6945 34.2371 25.3849L36.5336 23.1767C36.8135 22.9075 37.2272 22.8316 37.5845 22.9837ZM28.1176 36.2248H32.6713C33.2063 36.2248 33.64 36.6586 33.64 37.1936V44.9221C36.7641 41.9699 39.4418 38.5776 41.5882 34.8519H37.205C36.67 34.8519 36.2363 34.4181 36.2363 33.8831V26.1504L35.58 26.7815C32.6727 29.577 30.1626 32.7545 28.1176 36.2248Z" fill="#6AAF60"/>
</svg>
