<svg width="71" height="71" viewBox="0 0 71 71" fill="none" xmlns="http://www.w3.org/2000/svg">
<rect width="71" height="71" rx="14" fill="#FFF8DF"/>
<path d="M26.1328 29.8751L25.7065 34.5636L25.7053 34.5777C25.6417 35.277 25.6097 35.6288 25.6678 35.963C25.7196 36.2611 25.8229 36.5478 25.9739 36.81C26.1434 37.1041 26.3937 37.3544 26.8911 37.8518L26.8998 37.8605L33.5683 44.5291L33.5744 44.5351C34.5934 45.5541 35.1033 46.064 35.6919 46.2553C36.2108 46.4239 36.7698 46.4239 37.2886 46.2553C37.8785 46.0636 38.391 45.552 39.4141 44.529L44.5288 39.4143C45.5519 38.3912 46.0623 37.8798 46.254 37.2899C46.4226 36.7711 46.4226 36.2122 46.254 35.6934C46.0623 35.1035 45.5516 34.592 44.5286 33.569L37.8601 26.9004C37.3569 26.3973 37.1052 26.1456 36.8093 25.9752C36.5472 25.8242 36.2603 25.7204 35.9622 25.6686C35.6258 25.6101 35.2714 25.6423 34.5627 25.7067L29.8742 26.1329L29.873 26.133C28.6535 26.2439 28.0432 26.2994 27.5658 26.5648C27.1448 26.7989 26.7977 27.1461 26.5636 27.5671C26.2994 28.0421 26.2443 28.6486 26.1345 29.8564L26.1328 29.8751Z" stroke="#E6C54A" stroke-width="2" stroke-linecap="round" stroke-linejoin="round"/>
</svg>
